<svg xmlns="http://www.w3.org/2000/svg" xml:space="preserve" viewBox="0 0 500 500">
  <ellipse cx="250.1" cy="316.9" fill="#f5f5f5" rx="236.7" ry="136.6"/>
  <g fill="#e6e6e6">
    <ellipse cx="428.8" cy="396.3" rx="47.1" ry="27.2"/>
    <path d="m129 343 120 70h8l157-90c2-2 2-4 0-5l-121-70h-8l-156 91c-2 1-2 3 0 4zM104 327l-61-35c-2-2-2-4 0-5l65-38 65 38c2 1 2 3 0 5l-61 35h-8zM311 219c14-8 35-8 49 0 11 7 13 17 5 24l1 1 42 24c2 1 2 3 0 4l-2 1h-7l-39-26h-1c-13 8-34 8-48 0-13-8-13-20 0-28z"/>
  </g>
  <path fill="#27debf" d="M306 224v8c0 5 3 9 8 13 12 7 32 7 44 0 6-4 9-8 9-13v-8c0-4-3-9-9-12-12-7-32-7-44 0-5 3-8 8-8 12zm58 0c0 4-3 7-8 10s-12 5-20 5-15-2-20-5-8-6-8-10c1-3 3-7 8-10s12-4 20-4 15 1 20 4 8 7 8 10z"/>
  <path d="M337 242v8c-8 0-16-1-23-5-5-4-8-8-8-13v-9c-1 5 2 10 8 14 7 3 15 5 23 5z" opacity=".1"/>
  <path fill="#fff" d="M358 212c-12-7-32-7-44 0-11 7-11 18 0 25 12 7 32 7 44 0s12-18 0-25zm-2 22c-5 3-12 5-20 5s-15-2-20-5-7-6-7-10c0-3 2-7 7-10s12-4 20-4 15 1 20 4 8 7 8 10c0 4-3 7-8 10z" opacity=".6"/>
  <path fill="#27debf" d="m364 224-2 4c-1-2-3-4-6-5-5-3-12-5-20-5s-15 2-20 5c-3 1-5 3-6 5l-2-4c0-3 3-7 8-10s12-4 20-4 15 1 20 4 8 7 8 10z"/>
  <path fill="#fff" d="M356 218c-5-3-12-5-20-5s-15 2-20 5c-4 2-7 5-7 8s3 6 7 8c5 3 12 5 20 5s15-2 20-5c4-2 7-5 7-8s-3-6-7-8z" opacity=".5"/>
  <path fill="#37474f" d="m357 242 2-4h1l11 6v1l-2 4h-1l-11-6v-1z"/>
  <path fill="#263238" d="M357 243v-3l13 8-1 1h-1l-11-6z"/>
  <path d="M368 246z"/>
  <path fill="#27debf" d="m404 266-36-20 2-2h2l34 18-2 4z"/>
  <path fill="#fff" d="m404 266-36-20 2-2h2l34 18-2 4z" opacity=".6"/>
  <path fill="#27debf" d="m404 266-3 5-33-20-1-2 1-2v-1l36 20z"/>
  <path d="m404 266-3 5-33-20-1-2 1-2v-1l36 20z" opacity=".1"/>
  <path fill="#27debf" d="M404 271c2-1 3-4 3-7 0-2-1-3-3-2-2 2-4 4-4 7 0 2 2 3 4 2z"/>
  <path d="M404 271c2-1 3-4 3-7 0-2-1-3-3-2-2 2-4 4-4 7 0 2 2 3 4 2z" opacity=".3"/>
  <g fill="#27debf">
    <path d="m173 386-3-1-92-53-2-2 2-2 22-13v1l-22 13-1 1 1 1 93 53h4l18-10v1l-17 10-3 1z"/>
    <path d="m173 395-3-1-108-62-2-2 2-2 29-18 1 1-30 18-1 1 1 1 109 62h4l26-15 1 1-26 15-3 1z"/>
    <path d="M173 404h-3L45 332l-1-2 1-2 38-22 1 1-38 22-1 1 1 1 125 72h4l34-20 1 1-34 20h-3z"/>
  </g>
  <path fill="#263238" d="m43 269 65 37 65-37-65-38z"/>
  <path fill="#455a64" d="M108 306v18l-4-2-29-16-29-17c-2-1-3-3-3-5v-15l63 36 2 1z"/>
  <path fill="#37474f" d="M173 269v15c0 2-1 4-3 5l-26 15-32 18-4 2v-18l2-1 63-36z"/>
  <path fill="#27debf" d="M47 276v3h1c0 1 0 0 0 0v-3h-1zM49 277v3h1v1l1-1v-2h-1v-1h-1zM51 279v2l1 1h1v-2l-1-1h-1zM54 280v3h1v-2l-1-1z"/>
  <path fill="#263238" d="M56 281v3h1c0 1 0 0 0 0v-3h-1z"/>
  <path fill="#27debf" d="M58 283v2l1 1v-3l-1-1v1z"/>
  <path fill="#263238" d="M60 284v2l1 1v-3h-1zM62 285v2l1 1h1v-2l-1-1h-1zM65 286v3h1v-2l-1-1z"/>
  <path fill="#27debf" d="M67 288v2l1 1v-3l-1-1v1zM69 289v3h1v-3h-1c0-1 0 0 0 0z"/>
  <path fill="#263238" d="M71 290v2l1 1v-3h-1zM73 291v3h1v1l1-1v-2l-1-1h-1z"/>
  <path fill="#27debf" d="M75 293v2l1 1h1v-3h-1v-1l-1 1zM78 294v3h1v-3h-1zM80 295v3h1v-3h-1zM82 296v3l1 1v-4h-1zM47 283v2l1 1v-3l-1-1v1z"/>
  <path fill="#263238" d="M49 284v2l1 1h1v-2l-1-1h-1z"/>
  <path fill="#27debf" d="M51 285v2l1 1h1v-2l-1-1h-1z"/>
  <path fill="#263238" d="M54 286v3h1v-2l-1-1zM56 288v2l1 1v-3l-1-1v1z"/>
  <path fill="#27debf" d="M58 289v3h1v-3h-1c0-1 0 0 0 0zM60 290v2l1 1v-3h-1zM62 291v3h1v1l1-1v-2l-1-1h-1zM65 293v3h1v-3h-1v-1 1z"/>
  <path fill="#263238" d="M67 294v3h1v-3h-1zM69 295v3h1v-3h-1z"/>
  <path fill="#27debf" d="M71 296v3h1v1-4h-1zM73 298v2l1 1h1v-3h-1v-1l-1 1z"/>
  <path fill="#263238" d="M75 299v2l1 1h1v-2l-1-1h-1zM78 300v3h1c0 1 0 0 0 0v-3h-1zM80 301v3l1 1v-4h-1zM82 303v3h1v-3l-1-1v1z"/>
  <path fill="#27debf" d="m89 304 1-1h2l2 3-1 2h-2l-2-4h1-1z"/>
  <path d="m89 304 1-1h2l2 3-1 2h-2l-2-4h1-1z" opacity=".2"/>
  <path fill="#27debf" d="m91 304 2 3c0 1-1 2-2 1l-2-3c0-1 1-2 2-1zM97 308h3l2 3-1 1-1 1v-1c-2 0-2-2-2-3l-1-1z"/>
  <path d="M97 308h3l2 3-1 1-1 1v-1c-2 0-2-2-2-3l-1-1z" opacity=".2"/>
  <path fill="#27debf" d="m99 308 2 4-2 1-2-3c0-2 1-2 2-2z"/>
  <path fill="#263238" d="m43 241 65 37 65-37-65-38z"/>
  <path fill="#455a64" d="m43 259 65 38v-19l-65-37z"/>
  <path fill="#37474f" d="m108 297 65-38v-18l-65 37z"/>
  <path fill="#27debf" d="M51 269v-5l57 33v5zM169 262v4l-61 36v-5z"/>
  <path d="M169 262v4l-61 36v-5z" opacity=".2"/>
  <path fill="#263238" d="M47 248v3h1v-3h-1z"/>
  <path fill="#27debf" d="M49 249v2l1 1v1l1-1v-2l-1-1h-1zM51 251v2h1v1h1v-3h-1v-1l-1 1z"/>
  <path fill="#263238" d="M54 252v3h1v-2l-1-1c0-1 0 0 0 0zM56 253v3h1v-3h-1z"/>
  <path fill="#27debf" d="M58 254v3l1 1v-4h-1zM60 256v2l1 1v-4l-1 1zM62 257v2l1 1h1v-2l-1-1h-1zM65 258v3h1v-2l-1-1z"/>
  <path fill="#263238" d="M67 259v3l1 1v-4h-1zM69 261v3h1v-3l-1-1v1zM71 262v2l1 1v-3h-1z"/>
  <path fill="#27debf" d="M73 263v2l1 1h1v-2l-1-1h-1zM75 264v3h1v1l1-1v-2h-1v-1h-1zM78 266v3h1v-3h-1c0-1 0-1 0 0z"/>
  <path fill="#263238" d="M80 267v3h1v-3h-1z"/>
  <path fill="#27debf" d="M82 268v3h1c0 1 0 0 0 0v-3h-1zM47 254v3l1 1v-4h-1zM49 256v2l1 1h1v-3h-1v-1l-1 1zM51 257v2l1 1h1v-2l-1-1h-1zM54 258v3h1v-2l-1-1z"/>
  <path fill="#263238" d="M56 259v3l1 1v-4h-1zM58 261v3h1v-3l-1-1v1z"/>
  <path fill="#27debf" d="M60 262v2l1 1v-3h-1zM62 263v2l1 1h1v-2l-1-1h-1zM65 264v4l1-1v-2h-1v-1zM67 266v3h1v-3h-1c0-1 0-1 0 0zM69 267v3h1v-3h-1z"/>
  <path fill="#263238" d="M71 268v2l1 1c0 1 0 0 0 0v-3h-1z"/>
  <path fill="#27debf" d="M73 270v2h1v1l1-1v-2h-1v-1l-1 1zM75 271v2l1 1h1v-2l-1-1h-1zM78 272v3h1v-3h-1zM80 273v3h1c0 1 0 1 0 0v-3h-1zM82 275v2l1 1v-3l-1-1v1zM89 275h3l2 3-1 2h-2l-2-4h1l-1-1z"/>
  <path d="M89 275h3l2 3-1 2h-2l-2-4h1l-1-1z" opacity=".2"/>
  <path fill="#27debf" d="m91 276 2 3c0 1-1 2-2 1l-2-3c0-2 1-2 2-1zM97 280h3l2 3-1 1-1 1v-1c-2 0-2-2-2-3l-1-1z"/>
  <path d="M97 280h3l2 3-1 1-1 1v-1c-2 0-2-2-2-3l-1-1z" opacity=".2"/>
  <path fill="#27debf" d="m99 280 2 4-2 1-2-4 2-1z"/>
  <path fill="#263238" d="m43 212 65 38 65-38-65-37z"/>
  <path fill="#455a64" d="m43 231 65 38v-19l-65-38z"/>
  <path fill="#37474f" d="m108 269 65-38v-19l-65 38z"/>
  <path fill="#27debf" d="M51 241v-5l57 33v4zM169 234v4l-61 35v-4z"/>
  <path d="M169 234v4l-61 35v-4z" opacity=".2"/>
  <path fill="#27debf" d="M47 220v3h1v-3h-1zM49 221v2l1 1h1v-2l-1-1h-1zM51 222v3h1v1l1-1v-2h-1v-1h-1z"/>
  <path fill="#263238" d="M54 224v3h1v-2l-1-1v-1 1zM56 225v3h1v-3h-1z"/>
  <path fill="#27debf" d="M58 226v3h1c0 1 0 0 0 0v-3h-1zM60 228v2h1v1-4l-1 1zM62 229v2l1 1h1v-2l-1-1h-1zM65 230v3h1v-2l-1-1zM67 231v3h1c0 1 0 0 0 0v-3h-1zM69 233v2l1 1v-3l-1-1v1zM71 234v2l1 1v-3h-1z"/>
  <path fill="#263238" d="M73 235v2l1 1h1v-2l-1-1h-1z"/>
  <path fill="#27debf" d="M75 236v2l1 1v1l1-1v-2l-1-1h-1zM78 238v2l1 1v-3l-1-1v1zM80 239v3h1v-3h-1c0-1 0 0 0 0zM82 240v3h1v-3h-1zM47 226v3h1c0 1 0 0 0 0v-3h-1z"/>
  <path fill="#263238" d="M49 228v2h1v1l1-1v-2h-1v-1l-1 1zM51 229v2l1 1h1v-2l-1-1h-1z"/>
  <path fill="#27debf" d="M54 230v3h1v-2l-1-1zM56 231v3h1c0 1 0 0 0 0v-3h-1z"/>
  <path fill="#263238" d="M58 233v2l1 1v-3l-1-1v1z"/>
  <path fill="#27debf" d="M60 234v2l1 1v-3h-1zM62 235v2l1 1h1v-2l-1-1h-1zM65 236v4l1-1v-2l-1-1zM67 238v2l1 1v-3l-1-1v1z"/>
  <path fill="#263238" d="M69 239v3h1v-3h-1c0-1 0 0 0 0zM71 240v2l1 1v-3h-1z"/>
  <path fill="#27debf" d="M73 241v3h1v1l1-1v-2l-1-1h-1zM75 243v2l1 1h1v-3h-1v-1l-1 1zM78 244v3h1v-3h-1z"/>
  <path fill="#263238" d="M80 245v3h1v-3h-1z"/>
  <path fill="#27debf" d="M82 246v3l1 1v-4h-1zM89 247h3l2 3-1 1-1 1-1-1-2-3h1l-1-1z"/>
  <path d="M89 247h3l2 3-1 1-1 1-1-1-2-3h1l-1-1z" opacity=".2"/>
  <path fill="#27debf" d="m91 247 2 4-2 1-2-3c0-2 1-2 2-2zM97 252l1-1 2 1 2 3-1 1-1 1v-1c-2 0-2-2-2-3v-1h-1z"/>
  <path d="m97 252 1-1 2 1 2 3-1 1-1 1v-1c-2 0-2-2-2-3v-1h-1z" opacity=".2"/>
  <path fill="#27debf" d="m99 252 2 3c0 2-1 2-2 2l-2-4 2-1z"/>
  <path fill="#263238" d="m43 184 65 38 65-38-65-37z"/>
  <path fill="#455a64" d="m43 203 65 38v-19l-65-38z"/>
  <path fill="#37474f" d="m108 241 65-38v-19l-65 38z"/>
  <path fill="#27debf" d="M51 212v-4l57 33v4zM169 205v5l-61 35v-4z"/>
  <path d="M169 205v5l-61 35v-4z" opacity=".2"/>
  <path fill="#27debf" d="M47 192v3h1v-3h-1c0-1 0 0 0 0z"/>
  <path fill="#263238" d="M49 193v2l1 1h1v-2l-1-1h-1z"/>
  <path fill="#27debf" d="M51 194v2l1 1h1v-2l-1-1h-1z"/>
  <path fill="#263238" d="M54 196v3h1v-3h-1v-1 1zM56 197v3h1v-3h-1c0-1 0 0 0 0zM58 198v3h1v-3h-1zM60 199v3h1v1-4h-1z"/>
  <path fill="#27debf" d="M62 201v2l1 1h1v-3h-1v-1l-1 1zM65 202v3h1v-2l-1-1zM67 203v3h1v-3h-1zM69 204v3l1 1v-4h-1z"/>
  <path fill="#263238" d="M71 206v2l1 1v-4l-1 1zM73 207v2l1 1h1v-2l-1-1h-1zM75 208v2l1 1h1v-2l-1-1h-1z"/>
  <path fill="#27debf" d="M78 209v3l1 1v-3l-1-1z"/>
  <path fill="#263238" d="M80 211v3h1v-3l-1-1v1zM82 212v3h1v-3h-1zM47 198v3h1v-3h-1zM49 199v3h1v1l1-1v-2l-1-1h-1z"/>
  <path fill="#27debf" d="M51 201v2l1 1h1v-3h-1v-1l-1 1z"/>
  <path fill="#263238" d="M54 202v3h1v-2l-1-1zM56 203v3h1v-3h-1zM58 204v3l1 1v-4h-1zM60 206v2l1 1v-4l-1 1z"/>
  <path fill="#27debf" d="M62 207v2l1 1h1v-2l-1-1h-1z"/>
  <path fill="#263238" d="M65 208v3h1v-2l-1-1zM67 209v3l1 1v-3l-1-1zM69 211v3h1v-3l-1-1v1z"/>
  <path fill="#27debf" d="M71 212v2l1 1v-3h-1zM73 213v2l1 1h1v-2l-1-1h-1z"/>
  <path fill="#263238" d="M75 215v2h1v1l1-1v-2h-1v-1l-1 1zM78 216v3h1v-3h-1c0-1 0 0 0 0zM80 217v3h1v-3h-1zM82 218v3h1c0 1 0 0 0 0v-3h-1z"/>
  <path fill="#27debf" d="M89 219h3l2 3-1 1-1 1v-1h-1l-2-3h1l-1-1z"/>
  <path d="M89 219h3l2 3-1 1-1 1v-1h-1l-2-3h1l-1-1z" opacity=".2"/>
  <path fill="#27debf" d="m91 219 2 4-2 1-2-4 2-1zM97 224l1-1h2l2 4-1 1h-1c-2-1-2-2-2-3v-1h-1z"/>
  <path d="m97 224 1-1h2l2 4-1 1h-1c-2-1-2-2-2-3v-1h-1z" opacity=".2"/>
  <path fill="#27debf" d="m99 224 2 3c0 1-1 2-2 1l-2-3c0-1 1-2 2-1z"/>
  <path fill="#263238" d="m43 156 65 38 65-38-65-37z"/>
  <path fill="#455a64" d="m43 175 65 37v-18l-65-38z"/>
  <path fill="#37474f" d="m108 212 65-37v-19l-65 38z"/>
  <path fill="#27debf" d="M51 184v-4l57 32v5zM169 177v5l-61 35v-5z"/>
  <path d="M169 177v5l-61 35v-5z" opacity=".2"/>
  <path fill="#27debf" d="M47 164v3h1v-3l-1-1v1zM49 165v2l1 1h1v-2l-1-1h-1z"/>
  <path fill="#263238" d="M51 166v2l1 1h1v-2l-1-1h-1z"/>
  <path fill="#27debf" d="M54 167v4l1-1v-2l-1-1zM56 169v3h1v-3l-1-1v1z"/>
  <path fill="#263238" d="M58 170v3h1v-3h-1zM60 171v2l1 1c0 1 0 0 0 0v-3h-1z"/>
  <path fill="#27debf" d="M62 172v3h1v1l1-1v-2h-1v-1h-1z"/>
  <path fill="#263238" d="M65 174v3h1v-2l-1-1c0-1 0-1 0 0z"/>
  <path fill="#27debf" d="M67 175v3h1v-3h-1zM69 176v3h1c0 1 0 0 0 0v-3h-1zM71 178v2h1v1-4l-1 1zM73 179v2l1 1h1v-2l-1-1h-1z"/>
  <path fill="#263238" d="M75 180v2l1 1h1v-2l-1-1h-1zM78 181v3h1c0 1 0 1 0 0v-3h-1zM80 183v2l1 1v-3l-1-1v1z"/>
  <path fill="#27debf" d="M82 184v3h1v-3h-1c0-1 0 0 0 0zM47 170v3h1v-3h-1zM49 171v2l1 1h1v-2l-1-1h-1zM51 172v3h1v1l1-1v-2h-1v-1h-1z"/>
  <path fill="#263238" d="M54 174v3h1v-2l-1-1c0-1 0-1 0 0zM56 175v3h1v-3h-1z"/>
  <path fill="#27debf" d="M58 176v3h1c0 1 0 0 0 0v-3h-1zM60 178v2h1v1-4l-1 1zM62 179v2l1 1h1v-2l-1-1h-1z"/>
  <path fill="#263238" d="M65 180v3h1v-2l-1-1zM67 181v3h1c0 1 0 1 0 0v-3h-1zM69 183v2l1 1v-3l-1-1v1zM71 184v2l1 1v-3h-1z"/>
  <path fill="#27debf" d="M73 185v2l1 1h1v-2l-1-1h-1zM75 186v3h1v1l1-1v-2l-1-1h-1zM78 188v3h1v-3l-1-1v1zM80 189v3h1v-3h-1zM82 190v3h1v-3h-1zM89 191l1-1 2 1 2 3-1 1-1 1v-1h-1l-2-3 1-1h-1z"/>
  <path d="m89 191 1-1 2 1 2 3-1 1-1 1v-1h-1l-2-3 1-1h-1z" opacity=".2"/>
  <path fill="#27debf" d="m91 191 2 3-2 2-2-4 2-1zM97 196l1-1h2l2 4-1 1h-1c-2-1-2-2-2-3v-1h-1z"/>
  <path d="m97 196 1-1h2l2 4-1 1h-1c-2-1-2-2-2-3v-1h-1z" opacity=".2"/>
  <path fill="#27debf" d="m99 196 2 3c0 1-1 2-2 1l-2-3c0-1 1-2 2-1z"/>
  <path fill="#37474f" d="m170 126-60-34h-5l-59 34c-2 1-3 3-3 5v16l65 37 65-37v-16c0-2-1-4-3-5z"/>
  <path fill="#455a64" d="M108 165v19l-65-37v-16l2-4c-1 1-1 2 1 2l59 35 3 1z"/>
  <path fill="#263238" d="m46 129 59 35h6l59-35c2 0 2-2 0-3l-60-34h-5l-59 34c-2 1-2 3 0 3z"/>
  <path fill="#27debf" d="M51 156v-5l57 33v5zM169 149v5l-61 35v-5z"/>
  <path d="M169 149v5l-61 35v-5z" opacity=".2"/>
  <path fill="#263238" d="M47 136v2l1 1v-3l-1-1v1zM49 137v2l1 1h1v-2l-1-1h-1zM51 138v2l1 1h1v-2l-1-1h-1z"/>
  <path fill="#27debf" d="M54 139v3h1v-2l-1-1zM56 141v2l1 1v-3l-1-1v1z"/>
  <path fill="#263238" d="M58 142v3h1v-3h-1c0-1 0 0 0 0zM60 143v2l1 1v-3h-1zM62 144v2l1 1v1l1-1v-2l-1-1h-1zM65 146v3h1v-3h-1v-1 1zM67 147v3h1v-3h-1c0-1 0 0 0 0z"/>
  <path fill="#27debf" d="M69 148v3h1v-3h-1zM71 149v3h1v1-4h-1z"/>
  <path fill="#263238" d="M73 151v2l1 1h1v-3h-1v-1l-1 1z"/>
  <path fill="#27debf" d="M75 152v2l1 1h1v-2l-1-1h-1z"/>
  <path fill="#263238" d="M78 153v3h1v-3h-1zM80 154v3l1 1v-4h-1zM82 156v3h1v-3l-1-1v1z"/>
  <path fill="#27debf" d="M47 142v3h1v-3h-1c0-1 0 0 0 0z"/>
  <path fill="#263238" d="M49 143v2l1 1h1v-2l-1-1h-1zM51 144v2l1 1v1l1-1v-2l-1-1h-1zM54 146v3h1v-3h-1v-1 1zM56 147v3h1v-3h-1c0-1 0 0 0 0z"/>
  <path fill="#27debf" d="M58 148v3h1v-3h-1z"/>
  <path fill="#263238" d="M60 149v3h1v1-4h-1z"/>
  <path fill="#27debf" d="M62 151v2l1 1h1v-3h-1v-1l-1 1z"/>
  <path fill="#263238" d="M65 152v3h1v-2l-1-1z"/>
  <path fill="#27debf" d="M67 153v3h1v-3h-1z"/>
  <path fill="#263238" d="M69 154v3l1 1v-4h-1zM71 156v2l1 1v-4l-1 1zM73 157v2l1 1h1v-2l-1-1h-1zM75 158v2l1 1h1v-2l-1-1h-1zM78 159v3l1 1v-3l-1-1z"/>
  <path fill="#27debf" d="M80 161v3h1v-3h-1c0-1 0-1 0 0z"/>
  <path fill="#263238" d="M82 162v3h1v-3h-1z"/>
  <path fill="#27debf" d="m89 163 1-1h2l2 4-1 1h-2l-2-3 1-1h-1z"/>
  <path d="m89 163 1-1h2l2 4-1 1h-2l-2-3 1-1h-1z" opacity=".2"/>
  <path fill="#27debf" d="m91 163 2 3c0 1-1 2-2 1l-2-3c0-1 1-2 2-1zM97 168l1-1h2l2 3-1 2h-1c-2-1-2-2-2-4h-1z"/>
  <path d="m97 168 1-1h2l2 3-1 2h-1c-2-1-2-2-2-4h-1z" opacity=".2"/>
  <path fill="#27debf" d="m99 168 2 3c0 1-1 2-2 1l-2-3c0-1 1-2 2-1zM135 339c0 2 2 5 4 6l110 64h8l151-87c2-2 4-4 4-7 0-2-2-5-4-6l-110-64h-8l-151 87c-2 1-4 4-4 7z"/>
  <path fill="#fff" d="M253 401v9l-4-1-110-64c-2-1-4-4-4-6 0-3 1-5 3-7-1 2-1 3 1 5l110 63 4 1z" opacity=".2"/>
  <path fill="#27debf" d="M131 332c-2-1-3-4-3-6V194c0-3 1-6 3-7l151-87h8c2 1 4 4 4 6v132c0 3-2 6-4 7l-151 87h-8z"/>
  <path fill="#fff" d="M138 332h-7c-2-1-3-4-3-6V194l1-4 7 4-1 4v132c0 2 1 3 3 2z" opacity=".2"/>
  <path fill="#fff" d="M135 198v132c0 2 2 3 4 2l151-87c2-1 4-4 4-7V106c0-2-2-3-4-2l-151 87-4 7z" opacity=".4"/>
  <path fill="#27debf" d="m139 337 110 63c2 2 6 2 8 0l151-87c2-1 2-3 0-4l-110-64h-8l-151 87c-2 1-2 3 0 5z"/>
  <path fill="#fff" d="m139 337 110 63c2 2 6 2 8 0l151-87c2-1 2-3 0-4l-110-64h-8l-151 87c-2 1-2 3 0 5z" opacity=".6"/>
  <path fill="#455a64" d="m141 199 145-84c2-1 3 0 3 1v114l-3 4-145 84c-1 1-2 0-2-1V203l2-4z"/>
  <path fill="#27debf" d="m152 333 140-81h4l7 4v3l-140 81h-4l-7-5v-2z"/>
  <path fill="#fff" d="m152 333 140-81h4l7 4v3l-140 81h-4l-7-5v-2z" opacity=".4"/>
  <path fill="#27debf" d="m170 344 140-81h4l44 25v3l-140 80h-4l-44-25v-2z"/>
  <path fill="#fff" d="m170 344 140-81h4l44 25v3l-140 80h-4l-44-25v-2z" opacity=".4"/>
  <path fill="#27debf" d="m296 299 4-2v-1l-5-2-1-1-4 3 5 3h1zm-9-10-4 3c-1 0-1 0 0 0l5 3 5-2v-1l-5-3h-1zm-14 8-8 5 6 3 8-4v-1l-5-2-1-1zm8-4-5 3 5 3h1l4-3c1 0 1 0 0 0l-5-3zm-18 10-4 2v1l5 3h1l4-3-5-3h-1zm-6 4-4 2v1l5 3 5-3-5-3h-1zm20 12 4-3c1 0 1 0 0 0l-5-3-5 2v1l5 3h1zm-6 3 4-2v-1l-5-3h-1l-4 3 5 3h1zm-7 4 5-3h-1l-5-3-5 3 5 3h1zm-6 4 4-3-5-3h-1l-4 2v1l5 3h1zm31-27 5-2v-1l-5-3h-1l-5 3h1l5 3zm-6 12 10-6-12-7h-1l-5 3 7 4-4 3c-1 0-1 0 0 0l5 3zm-32-5-5 3 5 3h1l4-2v-1l-5-3zm-7 4-4 3 5 3h1l4-3-5-3h-1zm-32 42h1l4-3-5-3h-1l-4 2v1l5 3zm-19-12-4 2v1l5 3 5-3-5-3h-1zm10 8h1l4-2v-1l-5-3-5 3 5 3zm20 6 5-3-5-3h-1l-4 2v1l5 3zm-7 3 1 1 4-3c1 0 1 0 0 0l-5-3-5 2v1l5 2zm-17-21-4 2v1l5 3h1l4-3-5-3h-1zm32-19-4 3 5 3h1l4-2v-1l-5-3h-1zm-25 15-5 3 5 3h1l5-2-1-1-5-3zm32-18-5 2v1l5 3h1l5-3-6-3zm-13 7-4 3c-1 0-1 0 0 0l5 3 5-3-5-3h-1zm-6 4-5 2v1l5 3h1l4-3c1 0 1 0 0 0l-5-3zm-7 4-4 2 5 3h1l4-2v-1l-5-2h-1zm33 4 4-2v-1l-5-3h-1l-4 3 5 3h1zm56-56-4 3 5 3h1l4-3-5-3h-1zm-8 5-4 2v1l5 2h1l4-2-5-3h-1zm15-9-5 3 5 3h1l4-2v-1l-5-3zm-34 35 5-3-5-3h-1l-4 2v1l5 3zm41-38h-1l-4 2v1l5 3 5-3-5-3zm-64 59 5-2v-1l-5-3h-1l-4 3c-1 0-1 0 0 0l5 3zm79-45 4-3-5-3-5 3 5 3h1zm-14-1 5-2-5-3h-1l-5 2v1l6 2c0 1 0 1 0 0zm6-9h-1l-4 2v1l5 3h1l4-3-5-3zm1-1 13 7 5-2v-1l-13-7-5 3zm-15 8-4 3 5 3h1l4-2v-1l-5-3h-1zm-48 28-4 3 5 3h1l4-2v-1l-5-3h-1zm63-21h1l4-3-5-3h-1l-4 2v1l5 3zm-56 17-5 3 5 3h1l4-2v-1l-5-3zm-48 43 5-3-5-3h-1l-5 3 6 3zm-10-9-4 2v1l5 3 5-3-5-3h-1zm17 5 4-2v-1l-5-3h-1l-4 3 5 3h1zm6-4 4-2c1 0 1 0 0 0l-5-3c0-1 0-1 0 0l-5 2v1l5 2h1zm6-3 5-3-5-3h-1l-4 2v1l5 3zm-23-2-4 3 5 3h1l4-3-5-3h-1zm7-4-5 3 5 3h1l5-2v-1l-6-3zm25-14-4 2v1l5 2h1l4-2-5-3h-1zm-6 3-4 3c-1 0-1 0 0 0l5 3 5-2v-1l-5-3h-1zm13-7-5 2v1l5 3h1l5-3-6-3zm-26 15-4 2v1l5 3h1l4-3-5-3h-1zm7-4-5 3 5 3h1l4-3c1 0 1 0 0 0l-5-3zm-5 26 4-2v-1l-5-3h-1l-4 3 5 3h1zm-38-4-5-3h-1l-4 3 5 3h1l4-2v-1zm10 3-5-3h-1l-7 4 5 3h1l7-3v-1zm-18-8-5-3-6 3 5 3h1l6-3h-1zm5-3 5-2v-1l-5-3h-1l-4 3c-1 0-1 0 0 0l5 3zm22 14-5-3h-1l-8 5v1l5 3 9-5v-1zm4 6-5-3h-1l-5 3v1l5 3h1l5-3v-1zm21-47h1l4-3c1 0 1 0 0 0l-5-3-5 2v1l5 3zm-13 7h1l5-2v-1l-6-3-5 3 5 3zm-28 17h1l4-3-5-3h-1l-4 2v1l5 3zm35-21h1l4-2-5-3h-1l-4 2v1l5 2zm-13 8h1l4-3-5-3h-1l-4 3 5 3zm2 37h-1l-7 4 5 3h1l7-4-5-3zm-11-32h1l4-2v-1l-5-3h-1l-4 3 5 3zm-7 4h1l5-3h-1l-5-3-5 3 5 3zm136-41-11 6v1l5 3h1l10-6v-1l-5-3zm-14 8h-1l-4 3 5 3h1l4-2v-1l-5-3zm-87 48 5-2v-1l-5-2h-1l-5 2h1l5 3s0 1 0 0zm74-40-5 2v1l5 3h1l4-3c1 0 1 0 0 0l-5-3zm34-20h-1l-4 3c-1 0-1 0 0 0l5 3 5-2v-1l-5-3zm11 0-12-7h-1l-4 2v1l12 7h1l4-3zm-69 34c0-1 0-1 0 0l-6 3 5 3h1l5-3c1 0 1 0 0 0l-5-3zm17-10h-1l-7 4v1l5 2h1l7-3v-1l-5-3zm-31 18h-1l-36 21 5 3 37-21-5-3zm-39 22-6 3v1l5 3h1l5-3v-1l-5-3zm46-26h-1l-5 3 5 3h1l5-3-5-3zm-53 30h-1l-5 4 5 3h1l5-3v-1l-5-3zm68-39h-1l-5 3v1l5 3 6-3v-1l-5-3zm23-13h-1l-4 3c-1 0-1 0 0 0l5 3 5-3-5-3zm14-10 4-3-5-3h-1l-4 3 5 3h1zm-29 0 4-3c1 0 1 0 0 0l-5-3-5 2v1l5 3h1zm-14 25 12-8c1 0 1 0 0 0l-5-3-13 7v1l5 3h1zm36-21 5-3-5-3h-1l-4 2v1l5 3zm-7-5 4-2v-1l-5-2v-1l-5 3 5 3h1zm-36 29 5-2-6-3-5 2v1l5 2h1zm28-16h1l5-3-6-3-5 2v1l5 3zm-60 35 4-3c1 0 1 0 0 0l-5-3-5 3 5 3h1zm7-4 4-2v-1l-5-3h-1l-4 3 5 3h1zm-13 8 4-3-5-3h-1l-4 2v1l5 3h1zm25-15 5-3-5-3h-1l-4 3c-1 0-1 0 0 0l5 3zm-6 4 4-3c1 0 0 0 0 0l-5-3-5 2v1l5 3h1zm13-8 4-2v-1l-5-3h-1l-4 3 5 3h1zm29-55h1l4-2-1-1h-1l-4 2v1h1zm-31 21 5-3-5-3h-1l-5 2v1l6 3zm12-8h1l4-2v-1l-5-2c0-1 0-1 0 0l-5 2 5 3zm-20 12 5-2v-1l-5-3h-1l-4 3c-1 0-1 0 0 0l5 3zm14-8h1l4-2v-1l-5-3h-1l-4 3 5 3zm-27 16h1l4-3-5-3h-1l-4 2v1l5 3zm6-4h1l4-2v-1l-5-3-5 3 5 3zm33-21h1l4-3c1 0 1 0 0 0l-1-1h-1l-4 3 1 1zm19-11h1l5-3-2-1h-1l-4 3 1 1zm11 6h1l4-3-5-3h-1l-4 3 5 3zm16 16 5-2v-1l-6-3-5 3 5 3h1zm-39-15 5-2v-1l-2-1-5 3 2 1zm-53 32h1l5-2-6-3c0-1 0-1 0 0l-5 2 5 3z"/>
  <path fill="#fff" d="m296 299 4-2v-1l-5-2-1-1-4 3 5 3h1zm-9-10-4 3c-1 0-1 0 0 0l5 3 5-2v-1l-5-3h-1zm-14 8-8 5 6 3 8-4v-1l-5-2-1-1zm8-4-5 3 5 3h1l4-3c1 0 1 0 0 0l-5-3zm-18 10-4 2v1l5 3h1l4-3-5-3h-1zm-6 4-4 2v1l5 3 5-3-5-3h-1zm20 12 4-3c1 0 1 0 0 0l-5-3-5 2v1l5 3h1zm-6 3 4-2v-1l-5-3h-1l-4 3 5 3h1zm-7 4 5-3h-1l-5-3-5 3 5 3h1zm-6 4 4-3-5-3h-1l-4 2v1l5 3h1zm31-27 5-2v-1l-5-3h-1l-5 3h1l5 3zm-6 12 10-6-12-7h-1l-5 3 7 4-4 3c-1 0-1 0 0 0l5 3zm-32-5-5 3 5 3h1l4-2v-1l-5-3zm-7 4-4 3 5 3h1l4-3-5-3h-1zm-32 42h1l4-3-5-3h-1l-4 2v1l5 3zm-19-12-4 2v1l5 3 5-3-5-3h-1zm10 8h1l4-2v-1l-5-3-5 3 5 3zm20 6 5-3-5-3h-1l-4 2v1l5 3zm-7 3 1 1 4-3c1 0 1 0 0 0l-5-3-5 2v1l5 2zm-17-21-4 2v1l5 3h1l4-3-5-3h-1zm32-19-4 3 5 3h1l4-2v-1l-5-3h-1zm-25 15-5 3 5 3h1l5-2-1-1-5-3zm32-18-5 2v1l5 3h1l5-3-6-3zm-13 7-4 3c-1 0-1 0 0 0l5 3 5-3-5-3h-1zm-6 4-5 2v1l5 3h1l4-3c1 0 1 0 0 0l-5-3zm-7 4-4 2 5 3h1l4-2v-1l-5-2h-1zm33 4 4-2v-1l-5-3h-1l-4 3 5 3h1zm56-56-4 3 5 3h1l4-3-5-3h-1zm-8 5-4 2v1l5 2h1l4-2-5-3h-1zm15-9-5 3 5 3h1l4-2v-1l-5-3zm-34 35 5-3-5-3h-1l-4 2v1l5 3zm41-38h-1l-4 2v1l5 3 5-3-5-3zm-64 59 5-2v-1l-5-3h-1l-4 3c-1 0-1 0 0 0l5 3zm79-45 4-3-5-3-5 3 5 3h1zm-14-1 5-2-5-3h-1l-5 2v1l6 2c0 1 0 1 0 0zm6-9h-1l-4 2v1l5 3h1l4-3-5-3zm1-1 13 7 5-2v-1l-13-7-5 3zm-15 8-4 3 5 3h1l4-2v-1l-5-3h-1zm-48 28-4 3 5 3h1l4-2v-1l-5-3h-1zm63-21h1l4-3-5-3h-1l-4 2v1l5 3zm-56 17-5 3 5 3h1l4-2v-1l-5-3zm-48 43 5-3-5-3h-1l-5 3 6 3zm-10-9-4 2v1l5 3 5-3-5-3h-1zm17 5 4-2v-1l-5-3h-1l-4 3 5 3h1zm6-4 4-2c1 0 1 0 0 0l-5-3c0-1 0-1 0 0l-5 2v1l5 2h1zm6-3 5-3-5-3h-1l-4 2v1l5 3zm-23-2-4 3 5 3h1l4-3-5-3h-1zm7-4-5 3 5 3h1l5-2v-1l-6-3zm25-14-4 2v1l5 2h1l4-2-5-3h-1zm-6 3-4 3c-1 0-1 0 0 0l5 3 5-2v-1l-5-3h-1zm13-7-5 2v1l5 3h1l5-3-6-3zm-26 15-4 2v1l5 3h1l4-3-5-3h-1zm7-4-5 3 5 3h1l4-3c1 0 1 0 0 0l-5-3zm-5 26 4-2v-1l-5-3h-1l-4 3 5 3h1zm-38-4-5-3h-1l-4 3 5 3h1l4-2v-1zm10 3-5-3h-1l-7 4 5 3h1l7-3v-1zm-18-8-5-3-6 3 5 3h1l6-3h-1zm5-3 5-2v-1l-5-3h-1l-4 3c-1 0-1 0 0 0l5 3zm22 14-5-3h-1l-8 5v1l5 3 9-5v-1zm4 6-5-3h-1l-5 3v1l5 3h1l5-3v-1zm21-47h1l4-3c1 0 1 0 0 0l-5-3-5 2v1l5 3zm-13 7h1l5-2v-1l-6-3-5 3 5 3zm-28 17h1l4-3-5-3h-1l-4 2v1l5 3zm35-21h1l4-2-5-3h-1l-4 2v1l5 2zm-13 8h1l4-3-5-3h-1l-4 3 5 3zm2 37h-1l-7 4 5 3h1l7-4-5-3zm-11-32h1l4-2v-1l-5-3h-1l-4 3 5 3zm-7 4h1l5-3h-1l-5-3-5 3 5 3zm136-41-11 6v1l5 3h1l10-6v-1l-5-3zm-14 8h-1l-4 3 5 3h1l4-2v-1l-5-3zm-87 48 5-2v-1l-5-2h-1l-5 2h1l5 3s0 1 0 0zm74-40-5 2v1l5 3h1l4-3c1 0 1 0 0 0l-5-3zm34-20h-1l-4 3c-1 0-1 0 0 0l5 3 5-2v-1l-5-3zm11 0-12-7h-1l-4 2v1l12 7h1l4-3zm-69 34c0-1 0-1 0 0l-6 3 5 3h1l5-3c1 0 1 0 0 0l-5-3zm17-10h-1l-7 4v1l5 2h1l7-3v-1l-5-3zm-31 18h-1l-36 21 5 3 37-21-5-3zm-39 22-6 3v1l5 3h1l5-3v-1l-5-3zm46-26h-1l-5 3 5 3h1l5-3-5-3zm-53 30h-1l-5 4 5 3h1l5-3v-1l-5-3zm68-39h-1l-5 3v1l5 3 6-3v-1l-5-3zm23-13h-1l-4 3c-1 0-1 0 0 0l5 3 5-3-5-3zm14-10 4-3-5-3h-1l-4 3 5 3h1zm-29 0 4-3c1 0 1 0 0 0l-5-3-5 2v1l5 3h1zm-14 25 12-8c1 0 1 0 0 0l-5-3-13 7v1l5 3h1zm36-21 5-3-5-3h-1l-4 2v1l5 3zm-7-5 4-2v-1l-5-2v-1l-5 3 5 3h1zm-36 29 5-2-6-3-5 2v1l5 2h1zm28-16h1l5-3-6-3-5 2v1l5 3zm-60 35 4-3c1 0 1 0 0 0l-5-3-5 3 5 3h1zm7-4 4-2v-1l-5-3h-1l-4 3 5 3h1zm-13 8 4-3-5-3h-1l-4 2v1l5 3h1zm25-15 5-3-5-3h-1l-4 3c-1 0-1 0 0 0l5 3zm-6 4 4-3c1 0 0 0 0 0l-5-3-5 2v1l5 3h1zm13-8 4-2v-1l-5-3h-1l-4 3 5 3h1zm29-55h1l4-2-1-1h-1l-4 2v1h1zm-31 21 5-3-5-3h-1l-5 2v1l6 3zm12-8h1l4-2v-1l-5-2c0-1 0-1 0 0l-5 2 5 3zm-20 12 5-2v-1l-5-3h-1l-4 3c-1 0-1 0 0 0l5 3zm14-8h1l4-2v-1l-5-3h-1l-4 3 5 3zm-27 16h1l4-3-5-3h-1l-4 2v1l5 3zm6-4h1l4-2v-1l-5-3-5 3 5 3zm33-21h1l4-3c1 0 1 0 0 0l-1-1h-1l-4 3 1 1zm19-11h1l5-3-2-1h-1l-4 3 1 1zm11 6h1l4-3-5-3h-1l-4 3 5 3zm16 16 5-2v-1l-6-3-5 3 5 3h1zm-39-15 5-2v-1l-2-1-5 3 2 1zm-53 32h1l5-2-6-3c0-1 0-1 0 0l-5 2 5 3z" opacity=".8"/>
  <path fill="#27debf" d="m274 348 43-25h5l25 14v3l-44 25h-4l-25-14v-3z"/>
  <path fill="#fff" d="m274 348 43-25h5l25 14v3l-44 25h-4l-25-14v-3z" opacity=".4"/>
  <path fill="#27debf" d="M131 332z"/>
  <path fill="#fff" d="M294 106c-1-2-2-3-4-2l-151 87-3 3-7-4 2-3 151-87h8c2 1 3 3 4 6z" opacity=".6"/>
  <path fill="#27debf" d="M138 333z"/>
  <path fill="#fff" d="M412 315c0 3-2 5-4 7l-151 87-4 1v-9l4-1 151-87c2-1 2-3 0-4 2 1 4 4 4 6z" opacity=".8"/>
  <path fill="#37474f" d="M144 303c0 2 2 3 3 2l134-77c1-1 3-3 3-5v-90l-140 80v90z"/>
  <path fill="#fafafa" d="M195 195v4l2 1 27-16v-8l-27 16-2 3z"/>
  <path fill="#27debf" d="m232 172 1 1v4l-1 2-8 5v-8l8-4z"/>
  <path fill="#fafafa" d="m231 178-1-1v-2h-2l-1 3 1 2h1l1-2h1zm-3 1-1-1 2-3 1 1c0 2-1 3-2 3z"/>
  <path fill="#263238" d="m144 207 3-5 134-77c1-1 3 0 3 2v6l-140 80v-6z"/>
  <g fill="#27debf">
    <path d="m267 136-1 3h1l2-2-2-1zM272 133l-1 3 1 1 1-3-1-1zM277 131l-2 2 2 1 1-3h-1z"/>
  </g>
  <path fill="#fafafa" d="m147 305 134-77c1-1 3-3 3-5v-65l-140 80v65c0 2 2 3 3 2z"/>
  <path fill="#455a64" d="m199 193 20-12 2 1-2 2-20 12-2-1 2-2z" opacity=".4"/>
  <g fill="#27debf">
    <path d="m195 245-4-6v8l-1 1v-13h1c0-1 0-1 0 0h1l3 5v-8h1v12l-1 1zM198 235a12 12 0 0 1 1-4l1-1 1-2h3l1 1v2a31 31 0 0 1 0 6l-1 2-1 1-2 1-1 1-1-1-1-1v-1a36 36 0 0 1 0-4zm5-3v-1h-2l-1 1v2a46 46 0 0 0 0 4v1h1l2-1v-3a43 43 0 0 0 0-3zM212 222h3l1 1v2a39 39 0 0 1 0 5l-1 2-1 2-2 1-3 2v-13l3-2zm2 4v-2h-2l-1 1v9l1-1 1-1 1-1v-5zM221 217h1l3 10-1 1-1 1v-1l-1-1-3 2-1 2v1h-1l2-13 1-1 1-1zm1 8-1-5-2 6 3-1zM230 212h1v1l-1 1-2 1v11l-1 1v-11l-3 2v-3l6-3zM235 209v1l3 9v1l-1 1-1-2-4 2v3h-2c0 1 0 1 0 0l3-13v-1h1l1-1zm0 8-1-5-1 6 2-1z"/>
  </g>
  <path fill="#a35b5a" d="M458 277c2-29 0-36-8-41l-3 16s3 20 2 27l-2 17-2 2-4 4-2 2 2 1 3-2-3 5c-3 3-3 6 3 6 3 0 6-2 9-10l2-8 3-19z"/>
  <path fill="#27debf" d="M444 233c3 0 8 1 11 7 4 5 4 15 4 25 0 0-6 5-14 3l-1-35z"/>
  <path d="M444 233c3 0 8 1 11 7 4 5 4 15 4 25 0 0-6 5-14 3l-1-35z" opacity=".5"/>
  <path fill="#263238" d="M451 384v4c1 1 1 4-1 4-2 1-5 1-6-1l-4-6-5-6c0-3 0-4 2-5s6 3 8 3l6 7z"/>
  <path fill="#a35b5a" d="M451 382v3s-3 2-7 0v-4l7 1z"/>
  <path fill="#263238" d="m430 399 1 4v5l-6 2-8 2c-2 2-7 2-10 2-3-1-6-2-6-4-1-1 0-2 7-5 0 0 10-3 13-6h9z"/>
  <path fill="#a35b5a" d="M430 396v3c0 1-2 2-5 2l-4-2v-3h9z"/>
  <path fill="#27debf" d="m453 348-2-13 1-23 1-29s-38-9-39 5c-1 13 1 48 1 54l2 21 4 33c5 2 9 0 9 0l3-34c0-9-2-16-2-16l1-21 2-18 1-1 1 23 3 23 5 30c4 3 7 0 7 0s3-25 2-34z"/>
  <path d="m453 348-2-13 1-23 1-29s-38-9-39 5c-1 13 1 48 1 54l2 21 4 33c5 2 9 0 9 0l3-34c0-9-2-16-2-16l1-21 2-18 1-1 1 23 3 23 5 30c4 3 7 0 7 0s3-25 2-34z" opacity=".7"/>
  <path d="M434 307s10-5 14-9c0 0-4 6-10 9l-2 20-1-20h-1z" opacity=".4"/>
  <path fill="#a35b5a" d="m428 229 2 12h11l-1-15z"/>
  <path fill="#263238" d="M453 240c-1-3-5-7-10-7l-3 1c0 2-5 4-11 2l-5 2c-3 1-7 4-8 17l-2 36c10 4 20 4 26 3 12-2 13-7 13-7l1-31-1-16z"/>
  <path fill="#8c3f3e" d="m420 213-3 5 2 1 1-6z"/>
  <path fill="#263238" d="M421 216a4 4 0 1 1 0-7 4 4 0 0 1 0 7zm0-6a3 3 0 1 0 0 5 3 3 0 0 0 0-5z"/>
  <path fill="#a35b5a" d="M428 201c-6 1-8 4-9 13 0 10 1 13 2 15h8c3-1 10-3 14-8 4-6 5-14 0-17-5-5-13-4-15-3z"/>
  <path fill="#8c3f3e" d="M422 229h6l2-2s-1 2-8 2z"/>
  <path fill="#263238" d="m418 212 10 1v1l-10-1z"/>
  <path fill="#263238" d="m417 206 3 3 5 2 1 2 2 2s0-4 4-3c3 0 3 4 1 7-2 2-4 1-4 1s0 5 3 8h7c3-1 7-4 9-8 4-9 4-16-1-18-1-4-4-6-7-7h-12l-3-1c-1 0-3 1-2 2h-6c-3 2-3 4-2 7l2 3z"/>
  <path fill="#263238" d="m447 203 4-2a2 2 0 0 0-4 2zM427 217l1-4a2 2 0 0 0-1 4z"/>
  <path fill="#a35b5a" d="m424 240-24-17c-3-2-7-2-9-1-2 2-1 4 3 9l22 23 8-14z"/>
  <path fill="#27debf" d="m424 238-16-10s-7 6-5 15l14 13c2 1 8-1 9-8s-2-10-2-10z"/>
  <path d="m424 238-16-10s-7 6-5 15l14 13c2 1 8-1 9-8s-2-10-2-10z" opacity=".5"/>
  <path fill="#a35b5a" d="M390 224c1-4 13-13 18-16l5-4 2-2 2-2 3-2 7-1 2 1h3l1 1-1 1c-3 1-6 1-8 3l-1 2h5c2 0 1 1 0 2l-5 1-6 2-15 15-12-1z"/>
</svg>
